<!-- Generator: Adobe Illustrator 22.1.0, SVG Export Plug-In . SVG Version: 
6.00 Build 0)  --><svg xmlns="http://www.w3.org/2000/svg" id="Warstwa_2_1_" 
style="" viewBox="0 0 64 64" x="0px" y="0px" xmlns:xml="http://www.w3.org/XML/1998/namespace" 
xml:space="preserve" version="1.1"> 
<style type="text/css">
	.st0{fill:#FFFFFF;}
	.st1{fill:#E5E5E5;}
	.st2{fill:url(#SVGID_1_);}
	.st3{fill:#D82C30;}
</style> 
<g id="bg"><path class="st0" d="M 59 0 H 5 C 2.2 0 0 2.2 0 5 v 54 c 0 2.8 2.2 5 5 5 h 54 c 2.8 0 5 -2.2 5 -5 V 5 C 64 2.2 61.8 0 59 0 L 59 0 Z" 
/>	 <path class="st1" d="M 59 1 c 2.2 0 4 1.8 4 4 v 54 c 0 2.2 -1.8 4 -4 4 H 5 c -2.2 0 -4 -1.8 -4 -4 V 5 c 0 -2.2 1.8 -4 4 -4 H 59 M 59 0 H 5 C 2.2 0 0 2.2 0 5 v 54 c 0 2.8 2.2 5 5 5 h 54 c 2.8 0 5 -2.2 5 -5 V 5 C 64 2.2 61.8 0 59 0 L 59 0 Z" 
/> </g> <linearGradient id="SVGID_1_" gradientUnits="userSpaceOnUse" 
gradientTransform="matrix(1 0 0 -1 0 66)" x1="17.4" y1="19.45" x2="46.5666" y2="19.45"><stop 
style="stop-color: rgb(0, 0, 10);" offset="0" />	 <stop style="stop-color: rgb(0, 86, 167);" 
offset="1" /> </linearGradient> <path class="st2" d="M 44.4 48.7 H 19.7 c -1.1 0 -2.3 -0.9 -2.3 -1.9 l 0 0 c 0 -1.3 1.8 -2.4 3.1 -2.4 h 23.2 c 1.3 0 2.9 1.1 2.9 2.4 l 0 0 C 46.6 47.8 45.5 48.7 44.4 48.7 Z" 
/> <circle class="st3" cx="32.2" cy="25.3" r="10" /> </svg>
